<?xml version="1.0" encoding="utf-8"?>
<!-- Generator: Adobe Illustrator 24.3.0, SVG Export Plug-In . SVG Version: 6.00 Build 0)  -->
<svg version="1.1" id="Layer_10" xmlns="http://www.w3.org/2000/svg" xmlns:xlink="http://www.w3.org/1999/xlink" x="0px" y="0px"
	 viewBox="0 0 1440 258.2" style="enable-background:new 0 0 1440 258.2;" xml:space="preserve">
<style type="text/css">
	.st0{fill:#CAD1FC;}
	.st1{opacity:0.25;fill:#525ECC;enable-background:new    ;}
	.st2{fill:#180393;}
	.st3{fill:#525ECC;}
	.st4{fill:#1D1099;}
	.st5{fill:none;stroke:#6CCCE6;stroke-width:1.5;stroke-miterlimit:10;}
	.st6{fill:none;stroke:#1D1099;stroke-width:1.5;stroke-miterlimit:10;}
	.st7{fill:none;stroke:#ED6529;stroke-width:1.5;stroke-miterlimit:10;}
	.st8{fill:none;stroke:#FFFFFF;stroke-width:1.5;stroke-miterlimit:10;}
	.st9{fill:none;stroke:#1D1099;stroke-width:0.8582;stroke-miterlimit:10;}
	.st10{display:none;}
	.st11{display:inline;}
	.st12{fill:url(#SVGID_1_);stroke:#6CCCE6;stroke-width:3.4329;stroke-miterlimit:10;}
	
		.st13{display:inline;fill:none;stroke:#6E7AE5;stroke-width:3.4329;stroke-linecap:round;stroke-linejoin:round;stroke-miterlimit:10;}
	.st14{display:inline;fill-rule:evenodd;clip-rule:evenodd;fill:#FFFFFF;}
	.st15{fill:none;stroke:#ED6529;stroke-width:1.5;stroke-linecap:round;stroke-linejoin:round;stroke-miterlimit:10;}
	.st16{fill:#6E7AE5;}
	.st17{fill:url(#SVGID_2_);stroke:#6CCCE6;stroke-width:3.4329;stroke-miterlimit:10;}
	.st18{fill:#FFFFFF;}
</style>
<g>
	<circle class="st0" cx="342.5" cy="69" r="5.2"/>
	<circle class="st0" cx="1263.2" cy="36.8" r="5.2"/>
	<path class="st0" d="M1407.3,206.8c-1-32.3-27.5-58.2-60.1-58.2h-5c-0.5-45.6-37.6-82.4-83.3-82.4c-2.1,0-4.1,0.1-6.1,0.2
		c-12.4-30.5-42.3-52-77.2-52c-38.6,0-71,26.2-80.5,61.8c-12.5-5.7-26.4-8.9-41-8.9c-30.9,0-58.5,14.2-76.7,36.5
		C958,71,922.3,49,881.5,49c-18.5,0-35.9,4.5-51.2,12.5c-20.4-24.9-51.4-40.8-86.1-40.8c-38.8,0-73,19.9-92.9,50
		C631,55.8,606,47,579,47c-37.2,0-70.5,16.6-92.9,42.8c-18.3-13.4-40.9-21.3-65.3-21.3c-28.6,0-54.7,10.9-74.4,28.7
		c-11-5.4-23.4-8.4-36.4-8.4c-37.8,0-69.7,25.2-79.9,59.7h-13.7c-25.6,0-47.5,16.1-56.2,38.7c-12.4-4.2-25.7-6.6-39.5-6.6
		c-51.6,0-95.7,32.1-113.3,77.5H1440C1433.6,238.3,1422.2,220.7,1407.3,206.8z"/>
	<circle class="st0" cx="205.2" cy="116.8" r="10.3"/>
</g>
<path class="st1" d="M598.9,258.2h698.9c-6.6-46.6-46.7-82.4-95.1-82.4c-7.1,0-14,0.8-20.6,2.2c-12.4-38.8-48.7-66.9-91.6-66.9
	c-43.2,0-79.7,28.4-91.8,67.6c-15.5-10.6-34.2-16.8-54.3-16.8c-30.9,0-58.5,14.6-76,37.3c-17.6-19-42.7-30.9-70.6-30.9
	c-19.1,0-36.8,5.5-51.8,15.1c-14.7-34.2-48.7-58.2-88.3-58.2c-41.1,0-76.1,25.7-89.9,62c-36.9-33.4-95.2-60.4-129.4-60.4
	c-26.7,0-50.8,10.9-68.1,28.5c-8.4-3.8-17.8-5.9-27.6-5.9c-33.3,0-60.9,24-66.7,55.6c-5.3-1.3-10.8-2-16.5-2
	c-33.1,0-60.7,23.8-66.6,55.2L598.9,258.2L598.9,258.2z"/>
<g>
	<path class="st2" d="M655.8,258.1V109.3c0-5.8-4.7-10.4-10.4-10.4h-92.6c-5.8,0-10.4,4.7-10.4,10.4v148.8H655.8z"/>
	<path class="st2" d="M606.1,258.1V109.3c0-5.8-4.7-10.4-10.4-10.4H493c-5.8,0-10.4,4.7-10.4,10.4v148.8H606.1z"/>
	<path class="st3" d="M641.1,108.9c2.6,0,4.7,2.1,4.7,4.7V139c0,2.6-2.1,4.7-4.7,4.7h-29.5c-0.6,0-1.2-0.2-1.6-0.7l-1.7-1.7
		c-0.4-0.4-1-0.7-1.6-0.7h-22.2c-0.6,0-1.2,0.2-1.6,0.7l-1.7,1.7c-0.4,0.4-1,0.7-1.6,0.7h-35.4v-34.8
		C544.2,108.9,641.1,108.9,641.1,108.9z"/>
	<path class="st3" d="M641.1,148.7c2.6,0,4.7,2.1,4.7,4.7v25.4c0,2.6-2.1,4.7-4.7,4.7h-29.5c-0.6,0-1.2-0.2-1.6-0.7l-1.7-1.7
		c-0.4-0.4-1-0.7-1.6-0.7h-22.2c-0.6,0-1.2,0.2-1.6,0.7l-1.7,1.7c-0.4,0.4-1,0.7-1.6,0.7h-35.4v-34.8L641.1,148.7L641.1,148.7z"/>
	<path class="st3" d="M641.1,188.5c2.6,0,4.7,2.1,4.7,4.7v25.4c0,2.6-2.1,4.7-4.7,4.7h-29.5c-0.6,0-1.2-0.2-1.6-0.7l-1.7-1.7
		c-0.4-0.4-1-0.7-1.6-0.7h-22.2c-0.6,0-1.2,0.2-1.6,0.7l-1.7,1.7c-0.4,0.4-1,0.7-1.6,0.7h-35.4v-34.8L641.1,188.5L641.1,188.5z"/>
	<path class="st3" d="M645.9,258.1V233c0-2.6-2.1-4.7-4.7-4.7h-96.8v29.8H645.9z"/>
	<circle class="st4" cx="570.7" cy="200.7" r="2.5"/>
	<g>
		<circle class="st4" cx="634.4" cy="200.9" r="1.5"/>
		<circle class="st4" cx="634.4" cy="210.9" r="1.5"/>
		<circle class="st4" cx="622.5" cy="200.9" r="1.5"/>
		<circle class="st4" cx="622.5" cy="210.9" r="1.5"/>
		<circle class="st4" cx="628.4" cy="205.9" r="1.5"/>
		<circle class="st4" cx="610.5" cy="200.9" r="1.5"/>
		<circle class="st4" cx="610.5" cy="210.9" r="1.5"/>
		<circle class="st4" cx="616.5" cy="205.9" r="1.5"/>
	</g>
	<g>
		<circle class="st4" cx="634.4" cy="161.1" r="1.5"/>
		<circle class="st4" cx="634.4" cy="171.1" r="1.5"/>
		<circle class="st4" cx="622.5" cy="161.1" r="1.5"/>
		<circle class="st4" cx="622.5" cy="171.1" r="1.5"/>
		<circle class="st4" cx="628.4" cy="166.1" r="1.5"/>
		<circle class="st4" cx="610.5" cy="161.1" r="1.5"/>
		<circle class="st4" cx="610.5" cy="171.1" r="1.5"/>
		<circle class="st4" cx="616.5" cy="166.1" r="1.5"/>
	</g>
	<g>
		<circle class="st4" cx="634.4" cy="121.3" r="1.5"/>
		<circle class="st4" cx="634.4" cy="131.3" r="1.5"/>
		<circle class="st4" cx="622.5" cy="121.3" r="1.5"/>
		<circle class="st4" cx="622.5" cy="131.3" r="1.5"/>
		<circle class="st4" cx="628.4" cy="126.3" r="1.5"/>
		<circle class="st4" cx="610.5" cy="121.3" r="1.5"/>
		<circle class="st4" cx="610.5" cy="131.3" r="1.5"/>
		<circle class="st4" cx="616.5" cy="126.3" r="1.5"/>
	</g>
	<g>
		<circle class="st4" cx="634.4" cy="240.7" r="1.5"/>
		<circle class="st4" cx="634.4" cy="250.7" r="1.5"/>
		<circle class="st4" cx="622.5" cy="240.7" r="1.5"/>
		<circle class="st4" cx="622.5" cy="250.7" r="1.5"/>
		<circle class="st4" cx="628.4" cy="245.7" r="1.5"/>
		<circle class="st4" cx="610.5" cy="240.7" r="1.5"/>
		<circle class="st4" cx="610.5" cy="250.7" r="1.5"/>
		<circle class="st4" cx="616.5" cy="245.7" r="1.5"/>
	</g>
	<circle class="st5" cx="558.3" cy="120.8" r="3.5"/>
	<circle class="st6" cx="558.3" cy="132.7" r="2.5"/>
	<circle class="st7" cx="558.3" cy="160.6" r="3.5"/>
	<circle class="st6" cx="558.3" cy="172.6" r="2.5"/>
	<circle class="st8" cx="558.3" cy="200.4" r="3.5"/>
	<circle class="st5" cx="558.3" cy="212.4" r="2.5"/>
	<circle class="st9" cx="558.3" cy="240.3" r="3.5"/>
	<circle class="st9" cx="558.3" cy="252.2" r="2.5"/>
	<circle class="st4" cx="570.7" cy="240" r="2.5"/>
	<g class="st10">
		<g class="st11">
			
				<linearGradient id="SVGID_1_" gradientUnits="userSpaceOnUse" x1="272.5592" y1="-93.2697" x2="363.8674" y2="155.3417" gradientTransform="matrix(-1 0 0 -1 800.72 260)">
				<stop  offset="0" style="stop-color:#6CCCE6;stop-opacity:0.4"/>
				<stop  offset="1" style="stop-color:#6CCCE6;stop-opacity:0.1"/>
			</linearGradient>
			<path class="st12" d="M435.3,354.1h92.6c5.8,0,10.4-4.7,10.4-10.4V109.3c0-5.8-4.7-10.4-10.4-10.4h-92.6
				c-5.8,0-10.4,4.7-10.4,10.4v234.4C424.9,349.4,429.5,354.1,435.3,354.1z"/>
		</g>
		<line class="st13" x1="538.4" y1="128.8" x2="538.4" y2="155.6"/>
		<path class="st14" d="M493.9,150.7c-1.6,0-3,0.5-4.2,1.2c-1.3-5.2-5.9-9-11.5-9c-5.1,0-9.4,3.2-11.1,7.8c-4.7,0.1-8.4,4.3-7.6,9.1
			c0.6,3.9,4.1,6.7,8.1,6.7h26.1c4,0,7.5-2.8,8.1-6.8C502.5,154.9,498.7,150.7,493.9,150.7z"/>
	</g>
	<path class="st15" d="M593.8,256.4c2.4-31.9,3.8-55.8-23.1-55.8"/>
	<path class="st16" d="M544.1,258.1V109.9c0-5.1,4.2-9.3,9.3-9.3h91.4c5.1,0,9.3,4.2,9.3,9.3v148.2h3.4V109.9
		c0-7-5.7-12.7-12.7-12.7h-91.4c-7,0-12.7,5.7-12.7,12.7v148.2H544.1z"/>
</g>
<g>
	<g class="st10">
		<g class="st11">
			
				<linearGradient id="SVGID_2_" gradientUnits="userSpaceOnUse" x1="415.3826" y1="-151.7813" x2="506.6907" y2="96.8301" gradientTransform="matrix(-1 0 0 -1 800.72 260)">
				<stop  offset="0" style="stop-color:#6CCCE6;stop-opacity:0.4"/>
				<stop  offset="1" style="stop-color:#6CCCE6;stop-opacity:0.1"/>
			</linearGradient>
			<path class="st17" d="M292.5,412.6h92.6c5.8,0,10.4-4.7,10.4-10.4V167.8c0-5.8-4.7-10.4-10.4-10.4h-92.6
				c-5.8,0-10.4,4.7-10.4,10.4v234.4C282,408,286.7,412.6,292.5,412.6z"/>
		</g>
		<line class="st13" x1="395.5" y1="187.3" x2="395.5" y2="214.2"/>
		<path class="st14" d="M351.1,209.2c-1.6,0-3,0.5-4.2,1.2c-1.3-5.2-5.9-9-11.5-9c-5.1,0-9.4,3.2-11.1,7.8c-4.7,0.1-8.4,4.3-7.6,9.1
			c0.6,3.9,4.1,6.7,8.1,6.7h26.1c4,0,7.5-2.8,8.1-6.8C359.7,213.4,355.9,209.2,351.1,209.2z"/>
	</g>
	<g>
		<path class="st2" d="M513,257.3v-90.7c0-5.8-4.7-10.4-10.4-10.4H410c-5.8,0-10.4,4.7-10.4,10.4v90.7H513z"/>
		<path class="st2" d="M463.2,257.3v-90.7c0-5.8-4.7-10.4-10.4-10.4H350.2c-5.8,0-10.4,4.7-10.4,10.4v90.7H463.2z"/>
		<path class="st3" d="M498.3,166.2c2.6,0,4.7,2.1,4.7,4.7v25.4c0,2.6-2.1,4.7-4.7,4.7h-29.5c-0.6,0-1.2-0.2-1.6-0.7l-1.7-1.7
			c-0.4-0.4-1-0.7-1.6-0.7h-22.2c-0.6,0-1.2,0.2-1.6,0.7l-1.7,1.7c-0.4,0.4-1,0.7-1.6,0.7h-35.4v-34.8L498.3,166.2L498.3,166.2z"/>
		<path class="st3" d="M498.3,206c2.6,0,4.7,2.1,4.7,4.7v25.4c0,2.6-2.1,4.7-4.7,4.7h-29.5c-0.6,0-1.2-0.2-1.6-0.7l-1.7-1.7
			c-0.4-0.4-1-0.7-1.6-0.7h-22.2c-0.6,0-1.2,0.2-1.6,0.7l-1.7,1.7c-0.4,0.4-1,0.7-1.6,0.7h-35.4V206H498.3z"/>
		<path class="st3" d="M503,257.3v-6.8c0-2.6-2.1-4.7-4.7-4.7h-96.8v11.5H503z"/>
		<g>
			<circle class="st4" cx="491.6" cy="218.4" r="1.5"/>
			<circle class="st4" cx="491.6" cy="228.4" r="1.5"/>
			<circle class="st4" cx="479.6" cy="218.4" r="1.5"/>
			<circle class="st4" cx="479.6" cy="228.4" r="1.5"/>
			<circle class="st4" cx="485.6" cy="223.4" r="1.5"/>
			<circle class="st4" cx="467.7" cy="218.4" r="1.5"/>
			<circle class="st4" cx="467.7" cy="228.4" r="1.5"/>
			<circle class="st4" cx="473.7" cy="223.4" r="1.5"/>
		</g>
		<g>
			<circle class="st4" cx="491.6" cy="178.6" r="1.5"/>
			<circle class="st4" cx="491.6" cy="188.6" r="1.5"/>
			<circle class="st4" cx="479.6" cy="178.6" r="1.5"/>
			<circle class="st4" cx="479.6" cy="188.6" r="1.5"/>
			<circle class="st4" cx="485.6" cy="183.6" r="1.5"/>
			<circle class="st4" cx="467.7" cy="178.6" r="1.5"/>
			<circle class="st4" cx="467.7" cy="188.6" r="1.5"/>
			<circle class="st4" cx="473.7" cy="183.6" r="1.5"/>
		</g>
		<circle class="st7" cx="415.4" cy="178.1" r="3.5"/>
		<circle class="st6" cx="415.4" cy="190.1" r="2.5"/>
		<circle class="st6" cx="415.4" cy="217.9" r="3.5"/>
		<circle class="st8" cx="415.4" cy="229.9" r="2.5"/>
		<path class="st16" d="M401.2,257.3v-90.1c0-5.1,4.2-9.3,9.3-9.3H502c5.1,0,9.3,4.2,9.3,9.3v90.1h3.4v-90.1c0-7-5.7-12.7-12.7-12.7
			h-91.4c-7,0-12.7,5.7-12.7,12.7v90.1H401.2z"/>
	</g>
</g>
<path class="st18" d="M652.5,258.2c-9.1-9.9-22.1-16.1-36.5-16.1c-5,0-9.8,0.7-14.4,2.1c-11.2-19.2-32-32.2-55.9-32.2
	c-25.7,0-47.9,15-58.3,36.7c-7.3-4.2-15.8-6.6-24.8-6.6c-13.1,0-25,5.1-33.9,13.4c-9-12.3-23.6-20.4-40.1-20.4
	c-5,0-9.8,0.7-14.4,2.1C363,218,342.2,205,318.3,205c-25.7,0-47.9,15-58.3,36.7c-7.3-4.2-15.8-6.6-24.8-6.6
	c-9.6,0-18.6,2.8-26.2,7.5c-3.7-0.9-7.5-1.3-11.4-1.3c-9,0-17.5,2.4-24.8,6.6c-10.4-21.7-32.6-36.7-58.3-36.7
	c-23.9,0-44.7,12.9-55.9,32.2c-4.6-1.4-9.4-2.1-14.4-2.1c-14.9,0-28.2,6.5-37.3,16.9H652.5z"/>
<path class="st18" d="M1440,258.2c-7.5-17.9-25.2-30.4-45.8-30.4c-5,0-9.8,0.7-14.4,2.1c-11.2-19.2-32-32.2-55.9-32.2
	c-25.7,0-47.9,15-58.3,36.7c-7.3-4.2-15.8-6.6-24.8-6.6c-15,0-28.5,6.7-37.6,17.3c-5.7-2.3-12-3.6-18.6-3.6
	c-14.8,0-28.1,6.5-37.2,16.8H1440V258.2z"/>
</svg>
