<svg width="620" height="178" viewBox="0 0 620 178" fill="none" xmlns="http://www.w3.org/2000/svg">
<g clip-path="url(#clip0_7_299)">
<path d="M505.662 177.821C472.014 177.821 444.637 149.088 444.637 113.829C444.637 78.5701 472.014 49.8373 505.662 49.8373C539.311 49.8373 566.688 78.5701 566.688 113.829C566.688 149.088 539.226 177.821 505.662 177.821ZM509.392 79.0786C491.593 79.0786 477.184 94.6739 477.184 113.744C477.184 132.9 491.677 148.41 509.392 148.41C527.106 148.41 541.599 132.815 541.599 113.744C541.599 94.6739 527.106 79.0786 509.392 79.0786Z" fill="#00843F"/>
<path d="M224.946 51.5325H192.399V175.787H224.946V51.5325Z" fill="black"/>
<path d="M70.5181 175.787V51.5325C70.5181 41.0225 61.9576 32.5468 51.5325 32.5468C41.0226 32.5468 32.5468 41.0225 32.5468 51.5325H0C0 23.1387 23.1388 0.0847496 51.5325 0.0847496C79.9262 0.0847496 103.065 23.2235 103.065 51.6172V143.325H121.966V51.5325C121.966 23.1387 145.105 0 173.498 0C201.892 0 225.031 23.1387 225.031 51.5325H192.484C192.484 41.0225 183.923 32.5468 173.498 32.5468C162.988 32.5468 154.513 41.1073 154.513 51.5325V175.787H70.5181Z" fill="#FF4B4B"/>
<path d="M32.5468 51.5325H0V175.787H32.5468V51.5325Z" fill="black"/>
<path d="M350.811 51.5325H318.264V121.627H350.811V51.5325Z" fill="black"/>
<path d="M294.447 177.821C263.426 177.821 238.168 152.563 238.168 121.542H270.715C270.715 134.595 281.394 145.274 294.447 145.274C307.5 145.274 318.179 134.595 318.179 121.542H350.726C350.726 152.563 325.468 177.821 294.447 177.821Z" fill="#5887FF"/>
<path d="M270.8 51.5325H238.253V121.627H270.8V51.5325Z" fill="black"/>
<path d="M620 2.03417H587.453V51.5325H620V2.03417Z" fill="#FC83FF"/>
<path d="M574.146 51.5325H541.599V175.787H574.146V51.5325Z" fill="black"/>
<path d="M620 51.5325H587.453V175.787H620V51.5325Z" fill="black"/>
<path d="M396.664 83.9945H364.118V175.702H396.664V83.9945Z" fill="black"/>
<path d="M444.213 51.5325H364.118V84.0793H444.213V51.5325Z" fill="#FFAA00"/>
</g>
<defs>
<clipPath id="clip0_7_299">
<rect width="620" height="178" fill="white"/>
</clipPath>
</defs>
</svg>
